# xmcd
#
# Track frame offsets:
# 150
# 15348
# 25829
# 39427
# 55688
# 70414
# 84232
# 97630
# 110206
# 125432
#
# Disc length: 1877 seconds
#
#
# Revision: 0
# Processed by: cddbd v1.4PL0 Copyright (c) Steve Scherf et al.
# Submitted via: FreeRIP 2.35 
#
DISCID=7007530a
DTITLE=Jorge Zarate - A Mi manera
DYEAR=2001
DGENRE=A Cappella
TTITLE0=Jorge Zarate. Tu Recuerdo y Yo
TTITLE1=Jorge Zarate. Si nos dejan
TTITLE2=Jorge Zarate. Qu ete vaya bonito
TTITLE3=Jorge Zarate. Solo Dios
TTITLE4=Jorge Zarate. Desden
TTITLE5=Jorge Zarate. Ella
TTITLE6=Jorge Zarate. Almohada
TTITLE7=Jorge Zarate. Mi viejo San Juan
TTITLE8=Jorge Zarate. A pesar de todo
TTITLE9=Jorge Zarate. A mi manera
EXTD=EL Idolo del Fresno, Jorge Zarate
EXTT0=El idolo Jorge Zarate
EXTT1=El idolo Jorge Zarate
EXTT2=El idolo Jorge Zarate
EXTT3=El idolo Jorge Zarate
EXTT4=El idolo Jorge Zarate
EXTT5=El idolo Jorge Zarate
EXTT6=El idolo Jorge Zarate
EXTT7=El idolo Jorge Zarate
EXTT8=El idolo Jorge Zarate
EXTT9=El idolo Jorge Zarate
PLAYORDER=
